name GIL04_free3Moments.mot
datacolumns 7
datarows 54
range 0.10833324 0.54999989
endheader

                time	          RHipMoment	          LHipMoment	         RKneeMoment	         LKneeMoment	        RAnkleMoment	        LAnkleMoment	
          0.10833324	       -234.50813293	        370.42535400	         34.84720993	        690.32122803	        -30.73985672	        -90.76837158	
          0.11666657	       -231.72503662	        381.55444336	         43.43196106	        735.05023193	        -34.75638580	        -74.60990143	
          0.12499990	       -225.54145813	        415.94879150	         51.01110840	        745.04888916	        -37.45867157	        -56.07352829	
          0.13333324	       -214.02453613	        433.02841187	         56.62859344	        738.25305176	        -38.41937637	        -36.40849304	
          0.14166658	       -196.39450073	        429.88333130	         59.90894318	        717.55230713	        -37.51116943	        -10.13563824	
          0.14999990	       -172.81219482	        386.87539673	         60.93428040	        700.75219727	        -34.88994217	         17.68905258	
          0.15833324	       -143.94143677	        312.46826172	         59.95133209	        688.85339355	        -30.94128799	         49.70292664	
          0.16666657	       -111.01805115	        247.61303711	         57.28670120	        669.49151611	        -26.21980286	         81.31963348	
          0.17499991	        -76.23690033	        231.34098816	         53.42546844	        626.82110596	        -21.35653305	        113.90724945	
          0.18333325	        -42.70976257	        231.40116882	         48.95438766	        571.77587891	        -16.92319489	        146.06285095	
          0.19166657	        -13.60385036	        221.67330933	         44.31756973	        513.45330811	        -13.30092621	        180.57118225	
          0.19999990	          8.87047482	        203.47169495	         39.69507217	        454.10925293	        -10.62107849	        216.53007507	
          0.20833324	         23.63031960	        183.91017151	         35.18140030	        393.77090454	         -8.79450607	        252.53639221	
          0.21666658	         30.47833443	        171.04840088	         30.96786308	        332.94396973	         -7.59423161	        289.40167236	
          0.22499990	         30.15442657	        158.07368469	         27.26399422	        277.11190796	         -6.75985527	        324.05480957	
          0.23333324	         24.17364120	        146.94132996	         24.19427109	        225.01805115	         -6.09603691	        357.89797974	
          0.24166657	         14.38271713	        133.49061584	         21.84016228	        179.35112000	         -5.52680635	        389.98306274	
          0.24999991	          2.36710310	        118.51476288	         20.29611015	        139.74339294	         -5.08612251	        419.90972900	
          0.25833324	        -10.47955799	        107.67237091	         19.52788925	        102.83197784	         -4.87304354	        447.73608398	
          0.26666659	        -22.61997032	        101.35083771	         19.21508217	         67.55056763	         -5.00101662	        472.22918701	
          0.27499992	        -32.46598434	         93.20972443	         18.79643822	         34.87637711	         -5.54422045	        496.55572510	
          0.28333324	        -39.14284897	         79.33403778	         17.75626564	          6.78227520	         -6.49623537	        518.29571533	
          0.29166657	        -42.21183777	         61.43996811	         15.72257328	        -18.45617294	         -7.75959396	        537.86993408	
          0.29999989	        -41.55641937	         44.47334290	         12.47545528	        -42.62361145	         -9.16735840	        552.41534424	
          0.30833322	        -37.26735306	         56.26849747	          7.97028208	        -83.90957642	        -10.52674198	        569.33703613	
          0.31666657	        -30.00514984	          1.90749240	          2.45519996	        -86.57353210	        -11.66702652	        581.09228516	
          0.32499990	        -20.68527222	        -32.60221481	         -3.66992354	        -98.30361938	        -12.48295498	        591.49993896	
          0.33333325	        -10.18561459	        -42.66222382	        -10.06365013	       -121.96408844	        -12.96185207	        602.14257813	
          0.34166658	          0.83350080	        -54.90650558	        -16.58031082	       -142.59213257	        -13.16997242	        612.20501709	
          0.34999990	         11.21236897	        -70.91383362	        -23.12164879	       -159.26484680	        -13.21012402	        621.57525635	
          0.35833323	         19.64571953	        -88.61344147	        -29.60818100	       -173.84829712	        -13.18488407	        633.57293701	
          0.36666659	         25.28542709	        -90.62348175	        -36.03326416	       -195.27293396	        -13.17270565	        648.28936768	
          0.37499991	         28.17174149	        -90.20193481	        -42.56343079	       -215.92922974	        -13.21726990	        663.50274658	
          0.38333324	         29.17376328	        -98.49979401	        -49.52579117	       -230.33839417	        -13.32528782	        681.16131592	
          0.39166656	         29.64441490	       -111.87294769	        -57.31874084	       -241.97715759	        -13.46471882	        704.82446289	
          0.39999992	         31.34872055	       -121.70121002	        -66.44910431	       -257.01782227	        -13.56733418	        738.65490723	
          0.40833324	         36.15237808	       -148.80419922	        -77.45474243	       -265.61514282	        -13.53134251	        779.49664307	
          0.41666657	         45.22674942	       -178.23527527	        -90.70373535	       -274.49023438	        -13.23388672	        822.45568848	
          0.42499989	         58.36727142	       -200.02610779	       -106.13815308	       -291.03247070	        -12.55649281	        870.28387451	
          0.43333325	         74.67678833	       -233.92024231	       -123.34084320	       -304.11859131	        -11.42120457	        918.82458496	
          0.44166657	         92.98350525	       -275.49972534	       -141.59521484	       -315.17660522	         -9.81889057	        966.27667236	
          0.44999990	        112.68176270	       -313.61099243	       -160.21505737	       -328.29534912	         -7.83012724	       1009.67486572	
          0.45833322	        133.25869751	       -338.93835449	       -178.44595337	       -347.94857788	         -5.61410093	       1051.48791504	
          0.46666658	        154.07005310	       -379.40872192	       -195.48518372	       -357.43231201	         -3.37837744	       1089.86486816	
          0.47499990	        174.11883545	       -417.41552734	       -210.40855408	       -364.98001099	         -1.33128011	       1125.83154297	
          0.48333323	        192.08943176	       -453.04415894	       -222.20783997	       -368.76614380	          0.35822111	       1160.10131836	
          0.49166659	        206.01148987	       -498.34185791	       -229.71391296	       -361.12338257	          1.59011650	       1190.89758301	
          0.49999991	        213.68832397	       -543.88891602	       -231.68714905	       -347.68090820	          2.33926010	       1222.29516602	
          0.50833321	        212.50022888	       -596.78204346	       -226.70712280	       -322.98367310	          2.64567399	       1249.59875488	
          0.51666653	        200.08525085	       -654.54309082	       -213.62673950	       -287.69055176	          2.57391453	       1269.43151855	
          0.52499992	        174.42788696	       -709.54602051	       -191.91542053	       -247.55177307	          2.17242360	       1282.79943848	
          0.53333324	        134.20011902	       -754.33337402	       -162.12309265	       -205.71818542	          1.44016552	       1284.93774414	
          0.54166657	         79.28656769	       -790.34417725	       -126.03399658	       -162.20562744	          0.32495639	       1273.72119141	
          0.54999989	         12.47971821	       -813.94647217	        -86.87153625	       -118.91289520	         -1.24972343	       1246.95410156	
